<?xml version="1.0" encoding="utf-8"?>
<!-- Generator: Adobe Illustrator 15.1.0, SVG Export Plug-In . SVG Version: 6.00 Build 0)  -->
<!DOCTYPE svg PUBLIC "-//W3C//DTD SVG 1.1//EN" "http://www.w3.org/Graphics/SVG/1.1/DTD/svg11.dtd">
<svg version="1.1" id="MarcTV_Claim" xmlns="http://www.w3.org/2000/svg" xmlns:xlink="http://www.w3.org/1999/xlink" x="0px"
	 y="0px" width="297px" height="64px" viewBox="0 0 297 64" enable-background="new 0 0 297 64" xml:space="preserve">
<path id="MarcTV_Logo" fill="#325F9F" d="M5.886,20.973c-0.8-0.6-0.1,8-1.5,6.6c-2.7-2.699-5-11-1.9-14.199
	c2.9-3,7.7-6.601,12.1-6.5c1-0.3-6.9-4-5-4.6c3.6-1.1,12,1.2,13.4,5.5c1.2,3.8,2,10.3-0.4,13.8c0.1,0.7,7.1-3.899,6.6-2.1
	c-1.1,3.6-7.7,10.3-12,9.1C13.286,27.573,7.786,24.573,5.886,20.973z"/>
<path fill="#222222" d="M50.986,5.773v18.101h-3.2v-13.4l-5.6,8l-5.6-8v13.3h-3.2v-18h3.6l5.2,7.601l5.2-7.601L50.986,5.773
	L50.986,5.773z"/>
<path fill="#222222" d="M66.686,15.874v3.699c0,2.2-1.5,4.5-5.7,4.5c-4.3,0-5.8-2.399-5.8-4.6c0-1,0.4-4.2,5.8-4.2
	c0.8,0,1.7,0.101,2.4,0.2c0-1.5-0.8-2.5-2.9-2.5c-1.6,0-3,0.3-4,0.7v-2.601c1.1-0.5,2.5-0.8,4.1-0.8
	C64.585,10.073,66.686,12.173,66.686,15.874z M63.486,17.374c-0.6-0.101-1.2-0.2-1.9-0.2c-2.2,0-3.1,0.7-3.1,1.8
	c0,1.4,0.8,2.2,2.5,2.2c1.8,0,2.5-0.8,2.5-2.101V17.374z"/>
<path fill="#222222" d="M77.486,10.073v2.8c-1.8,0-3,0.3-3.5,0.5v10.399h-3.2v-12.2C70.786,11.573,73.686,10.173,77.486,10.073z"/>
<path fill="#222222" d="M87.486,21.273c1.2,0,2.4-0.3,3.4-0.7v2.7c-1.2,0.5-2.5,0.8-3.9,0.8c-4.1,0-6.4-2.5-6.4-7s2.3-7,6.4-7
	c1.4,0,2.7,0.3,3.9,0.8v2.699c-1-0.399-2.1-0.6-3.4-0.6c-2.3,0-3.7,0.7-3.7,4.2C83.786,20.573,85.186,21.273,87.486,21.273z"/>
<path fill="#222222" d="M107.286,5.773v1.9h-6.4v16.2h-1.9v-16.2h-6.4v-1.9H107.286z"/>
<path fill="#222222" d="M124.286,5.773l-6.9,18.101h-1.9l-6.9-18.101h2.1l5.8,15.3l5.8-15.3H124.286z"/>
</svg>
